<?xml version="1.0" encoding="UTF-8" standalone="no"?>
<!DOCTYPE svg PUBLIC "-//W3C//DTD SVG 20010904//EN"
"http://www.w3.org/TR/2001/REC-SVG-20010904/DTD/svg10.dtd">
<!-- Created with Inkscape (http://www.inkscape.org/) -->
<svg
   width="100.00000mm"
   height="100.00000mm"
   id="svg1"
   sodipodi:version="0.32"
   inkscape:version="0.40"
   sodipodi:docbase="/home/paulb/Software/Python/Rally7/data/templates"
   sodipodi:docname="ocean.svg"
   inkscape:export-filename="/home/paulb/Software/Python/Rally7/data/rock-template.png"
   inkscape:export-xdpi="72.000000"
   inkscape:export-ydpi="72.000000"
   xmlns="http://www.w3.org/2000/svg"
   xmlns:cc="http://web.resource.org/cc/"
   xmlns:inkscape="http://www.inkscape.org/namespaces/inkscape"
   xmlns:sodipodi="http://sodipodi.sourceforge.net/DTD/sodipodi-0.dtd"
   xmlns:rdf="http://www.w3.org/1999/02/22-rdf-syntax-ns#"
   xmlns:dc="http://purl.org/dc/elements/1.1/"
   xmlns:xlink="http://www.w3.org/1999/xlink">
  <defs
     id="defs3">
    <linearGradient
       inkscape:collect="always"
       id="linearGradient24466">
      <stop
         style="stop-color:#ad5819;stop-opacity:1;"
         offset="0"
         id="stop24467" />
      <stop
         style="stop-color:#ad5819;stop-opacity:0;"
         offset="1"
         id="stop24468" />
    </linearGradient>
    <linearGradient
       inkscape:collect="always"
       xlink:href="#linearGradient24466"
       id="linearGradient24469"
       gradientTransform="scale(1.142535,0.875247)"
       x1="159.54588"
       y1="256.97266"
       x2="195.65826"
       y2="297.99930"
       gradientUnits="userSpaceOnUse" />
  </defs>
  <sodipodi:namedview
     id="base"
     pagecolor="#ffffff"
     bordercolor="#666666"
     borderopacity="1.0"
     inkscape:pageopacity="0.0"
     inkscape:pageshadow="2"
     inkscape:zoom="2.6987502"
     inkscape:cx="151.28482"
     inkscape:cy="262.17712"
     inkscape:current-layer="layer1"
     showgrid="true"
     inkscape:grid-bbox="true"
     inkscape:grid-points="true"
     gridspacingx="2.5000000mm"
     gridspacingy="2.5000000mm"
     inkscape:window-width="1272"
     inkscape:window-height="944"
     inkscape:window-x="0"
     inkscape:window-y="0"
     showguides="true"
     inkscape:guide-bbox="true" />
  <metadata
     id="metadata4">
    <rdf:RDF
       id="RDF5">
      <cc:Work
         rdf:about=""
         id="Work6">
        <dc:format
           id="format7">image/svg+xml</dc:format>
        <dc:type
           id="type9"
           rdf:resource="http://purl.org/dc/dcmitype/StillImage" />
        <cc:license
           id="license1061"
           rdf:resource="http://creativecommons.org/licenses/GPL/3.0/" />
        <dc:title
           id="title1069">Rock Template</dc:title>
        <dc:creator
           id="creator1071">
          <cc:Agent
             id="Agent1072">
            <dc:title
               id="title1073">Paul Boddie</dc:title>
          </cc:Agent>
        </dc:creator>
        <dc:rights
           id="rights1075">
          <cc:Agent
             id="Agent1076">
            <dc:title
               id="title1077">Paul Boddie</dc:title>
          </cc:Agent>
        </dc:rights>
        <dc:publisher
           id="publisher1079">
          <cc:Agent
             id="Agent1080">
            <dc:title
               id="title1081">Paul Boddie</dc:title>
          </cc:Agent>
        </dc:publisher>
        <dc:language
           id="language1083">en-GB</dc:language>
        <dc:date
           id="date1085">2006-04-23</dc:date>
      </cc:Work>
      <cc:License
         rdf:about="http://creativecommons.org/licenses/GPL/3.0/"
         id="License1062">
        <cc:permits
           rdf:resource="http://web.resource.org/cc/Reproduction"
           id="permits1063" />
        <cc:permits
           rdf:resource="http://web.resource.org/cc/Distribution"
           id="permits1064" />
        <cc:requires
           rdf:resource="http://web.resource.org/cc/Notice"
           id="requires1065" />
        <cc:permits
           rdf:resource="http://web.resource.org/cc/DerivativeWorks"
           id="permits1066" />
        <cc:requires
           rdf:resource="http://web.resource.org/cc/ShareAlike"
           id="requires1067" />
        <cc:requires
           rdf:resource="http://web.resource.org/cc/SourceCode"
           id="requires1068" />
      </cc:License>
    </rdf:RDF>
  </metadata>
  <g
     inkscape:label="Layer 1"
     inkscape:groupmode="layer"
     id="layer1">
    <rect
       style="fill:#dbfbfb;fill-opacity:1.0000000;fill-rule:evenodd;stroke:none;stroke-width:21.259844;stroke-linecap:round;stroke-linejoin:round;stroke-miterlimit:4.0000000;stroke-opacity:1.0000000;"
       id="rect2992"
       ry="0.0000000"
       x="2.0184854e-05"
       y="-1.4210855e-14"
       width="354.33069"
       height="354.33069" />
    <path
       style="fill:#36dfe1;fill-opacity:1.0000000;fill-rule:evenodd;stroke:#36dfe1;stroke-width:7.0866141;stroke-linecap:round;stroke-linejoin:round;stroke-miterlimit:4.0000000;stroke-opacity:1.0000000;"
       d="M 398.62205,8.8582475 L 398.62205,168.30707 L -44.291339,168.30707 L -44.291343,44.291323 C -17.716543,17.716513 17.716533,8.8582485 44.291333,8.8582485 C 70.866133,8.8582485 106.29921,17.716513 132.87401,44.291323 C 159.44882,70.866123 194.88189,79.724397 221.45669,79.724397 C 248.03149,79.724397 283.46457,70.866123 310.03937,44.291323 C 336.61417,17.716513 398.62205,-17.716562 398.62205,8.8582475 z "
       id="path1846"
       sodipodi:nodetypes="cccccccss" />
    <path
       style="fill:#2fc1e1;fill-opacity:1.0000000;fill-rule:evenodd;stroke:#2fc1e1;stroke-width:7.0866141;stroke-linecap:round;stroke-linejoin:round;stroke-miterlimit:4.0000000;stroke-opacity:1.0000000;"
       d="M 398.62204,97.440925 L 398.62204,256.88974 L -44.291342,256.88974 L -44.291342,132.87400 C -17.716542,106.29919 17.716538,97.440925 44.291338,97.440925 C 70.866138,97.440925 106.29921,106.29919 132.87401,132.87400 C 159.44882,159.44879 194.88189,168.30707 221.45669,168.30707 C 248.03149,168.30707 283.46457,159.44879 310.03936,132.87400 C 336.61416,106.29919 398.62204,70.866116 398.62204,97.440925 z "
       id="path3092"
       sodipodi:nodetypes="cccccccss" />
    <path
       style="fill:#1973be;fill-opacity:1.0000000;fill-rule:evenodd;stroke:#1973be;stroke-width:7.0866141;stroke-linecap:round;stroke-linejoin:round;stroke-miterlimit:4.0000000;stroke-opacity:1.0000000"
       d="M 398.62204,186.02360 L 398.62204,345.47243 L -44.291345,345.47243 L -44.291355,221.45668 C -17.716555,194.88187 17.716525,186.02360 44.291325,186.02360 C 70.866125,186.02360 106.29920,194.88187 132.87401,221.45668 C 159.44882,248.03148 194.88189,256.88975 221.45668,256.88975 C 248.03149,256.88975 283.46457,248.03148 310.03937,221.45668 C 336.61416,194.88187 398.62204,159.44879 398.62204,186.02360 z "
       id="path3093"
       sodipodi:nodetypes="cccccccss" />
    <path
       style="fill:#dbfbfb;fill-opacity:1.0000000;fill-rule:evenodd;stroke:#dbfbfb;stroke-width:7.0866141;stroke-linecap:round;stroke-linejoin:round;stroke-miterlimit:4.0000000;stroke-opacity:1.0000000"
       d="M 398.62205,274.60628 L 398.62205,354.33069 L -44.291339,354.33069 L -44.291342,310.03935 C -17.716542,283.46454 17.716528,274.60628 44.291328,274.60628 C 70.866132,274.60628 106.29921,283.46454 132.87401,310.03935 C 159.44882,336.61415 194.88189,345.47243 221.45669,345.47243 C 248.03149,345.47243 283.46457,336.61415 310.03937,310.03935 C 336.61417,283.46454 398.62205,248.03147 398.62205,274.60628 z "
       id="path3094"
       sodipodi:nodetypes="cccccccss" />
    <path
       sodipodi:type="arc"
       style="fill:#b8e3f7;fill-opacity:1.0000000;fill-rule:evenodd;stroke:none;stroke-width:14.173228;stroke-linecap:round;stroke-linejoin:round;stroke-miterlimit:4.0000000;stroke-opacity:1.0000000;"
       id="path1133"
       sodipodi:cx="70.866142"
       sodipodi:cy="124.01572"
       sodipodi:rx="8.8582678"
       sodipodi:ry="8.8582678"
       d="M 79.724410 124.01572 A 8.8582678 8.8582678 0 1 1  62.007874,124.01572 A 8.8582678 8.8582678 0 1 1  79.724410 124.01572 z"
       transform="matrix(-1.500000,3.635195e-16,-3.635197e-16,-1.500001,380.9055,318.8977)" />
    <path
       sodipodi:type="arc"
       style="fill:#ffffff;fill-opacity:1.0000000;fill-rule:evenodd;stroke:none;stroke-width:14.173228;stroke-linecap:round;stroke-linejoin:round;stroke-miterlimit:4.0000000;stroke-opacity:1.0000000;"
       id="path1134"
       sodipodi:cx="70.866142"
       sodipodi:cy="124.01572"
       sodipodi:rx="8.8582678"
       sodipodi:ry="8.8582678"
       d="M 79.724410 124.01572 A 8.8582678 8.8582678 0 1 1  62.007874,124.01572 A 8.8582678 8.8582678 0 1 1  79.724410 124.01572 z"
       transform="matrix(-2.000000,4.846926e-16,-4.846921e-16,-1.999998,407.4803,274.6060)" />
    <path
       sodipodi:type="arc"
       style="fill:#b8e3f7;fill-opacity:1.0000000;fill-rule:evenodd;stroke:none;stroke-width:14.173228;stroke-linecap:round;stroke-linejoin:round;stroke-miterlimit:4.0000000;stroke-opacity:1.0000000"
       id="path1135"
       sodipodi:cx="70.866142"
       sodipodi:cy="124.01572"
       sodipodi:rx="8.8582678"
       sodipodi:ry="8.8582678"
       d="M 79.724410 124.01572 A 8.8582678 8.8582678 0 1 1  62.007874,124.01572 A 8.8582678 8.8582678 0 1 1  79.724410 124.01572 z"
       transform="matrix(-1.500000,3.635195e-16,-3.635197e-16,-1.500001,124.0157,248.0316)" />
    <path
       sodipodi:type="arc"
       style="fill:#09acf0;fill-opacity:1.0000000;fill-rule:evenodd;stroke:none;stroke-width:14.173228;stroke-linecap:round;stroke-linejoin:round;stroke-miterlimit:4.0000000;stroke-opacity:1.0000000;"
       id="path1137"
       sodipodi:cx="70.866142"
       sodipodi:cy="124.01572"
       sodipodi:rx="8.8582678"
       sodipodi:ry="8.8582678"
       d="M 79.724410 124.01572 A 8.8582678 8.8582678 0 1 1  62.007874,124.01572 A 8.8582678 8.8582678 0 1 1  79.724410 124.01572 z"
       transform="matrix(-1.000000,2.423463e-16,-2.423468e-16,-1.000002,141.7323,256.8900)" />
    <path
       sodipodi:type="arc"
       style="fill:#09acf0;fill-opacity:1.0000000;fill-rule:evenodd;stroke:none;stroke-width:14.173228;stroke-linecap:round;stroke-linejoin:round;stroke-miterlimit:4.0000000;stroke-opacity:1.0000000;"
       id="path1147"
       sodipodi:cx="70.866142"
       sodipodi:cy="124.01572"
       sodipodi:rx="8.8582678"
       sodipodi:ry="8.8582678"
       d="M 79.724410 124.01572 A 8.8582678 8.8582678 0 1 1  62.007874,124.01572 A 8.8582678 8.8582678 0 1 1  79.724410 124.01572 z"
       transform="matrix(-1.500000,3.635195e-16,-3.635197e-16,-1.500001,310.0394,380.9056)" />
    <path
       sodipodi:type="arc"
       style="fill:#1c40ea;fill-opacity:1.0000000;fill-rule:evenodd;stroke:none;stroke-width:14.173228;stroke-linecap:round;stroke-linejoin:round;stroke-miterlimit:4.0000000;stroke-opacity:1.0000000"
       id="path1149"
       sodipodi:cx="70.866142"
       sodipodi:cy="124.01572"
       sodipodi:rx="8.8582678"
       sodipodi:ry="8.8582678"
       d="M 79.724410 124.01572 A 8.8582678 8.8582678 0 1 1  62.007874,124.01572 A 8.8582678 8.8582678 0 1 1  79.724410 124.01572 z"
       transform="matrix(-1.000000,2.423463e-16,-2.423468e-16,-1.000002,389.7638,372.0475)" />
    <path
       sodipodi:type="arc"
       style="fill:#ffffff;fill-opacity:1.0000000;fill-rule:evenodd;stroke:none;stroke-width:14.173228;stroke-linecap:round;stroke-linejoin:round;stroke-miterlimit:4.0000000;stroke-opacity:1.0000000"
       id="path1157"
       sodipodi:cx="70.866142"
       sodipodi:cy="124.01572"
       sodipodi:rx="8.8582678"
       sodipodi:ry="8.8582678"
       d="M 79.724410 124.01572 A 8.8582678 8.8582678 0 1 1  62.007874,124.01572 A 8.8582678 8.8582678 0 1 1  79.724410 124.01572 z"
       transform="matrix(-1.500000,3.635195e-16,-3.635197e-16,-1.500001,212.5984,522.6379)" />
    <path
       sodipodi:type="arc"
       style="fill:#1c40ea;fill-opacity:1.0000000;fill-rule:evenodd;stroke:none;stroke-width:14.173228;stroke-linecap:round;stroke-linejoin:round;stroke-miterlimit:4.0000000;stroke-opacity:1.0000000"
       id="path1158"
       sodipodi:cx="70.866142"
       sodipodi:cy="124.01572"
       sodipodi:rx="8.8582678"
       sodipodi:ry="8.8582678"
       d="M 79.724410 124.01572 A 8.8582678 8.8582678 0 1 1  62.007874,124.01572 A 8.8582678 8.8582678 0 1 1  79.724410 124.01572 z"
       transform="matrix(-2.000000,4.846926e-16,-4.846921e-16,-1.999998,327.7559,549.2123)" />
  </g>
</svg>
